<svg xmlns="http://www.w3.org/2000/svg" version="1.1" xmlns:xlink="http://www.w3.org/1999/xlink" xmlns:svgjs="http://svgjs.dev/svgjs" width="128" height="128" viewBox="0 0 128 128"><g transform="matrix(0.8046875,0,0,0.8046875,12.333870967741937,12.333870967741937)"><svg viewBox="0 0 155 155" data-background-color="#ffffff" preserveAspectRatio="xMidYMid meet" height="128" width="128" xmlns="http://www.w3.org/2000/svg" xmlns:xlink="http://www.w3.org/1999/xlink"><g id="tight-bounds" transform="matrix(1,0,0,1,0.25,0.25)"><svg viewBox="0 0 154.5 154.5" height="154.5" width="154.5"><g><svg></svg></g><g><svg viewBox="0 0 154.5 154.5" height="154.5" width="154.5"><g transform="matrix(1,0,0,1,56.028876864946895,47.746371)"><svg viewBox="0 0 42.44224627010622 59.00725799999999" height="59.00725799999999" width="42.44224627010622"><g><svg viewBox="0 0 42.44224627010622 59.00725799999999" height="59.00725799999999" width="42.44224627010622"><g><svg viewBox="0 0 42.44224627010622 59.00725799999999" height="59.00725799999999" width="42.44224627010622"><g id="textblocktransform"><svg viewBox="0 0 42.44224627010622 59.00725799999999" height="59.00725799999999" width="42.44224627010622" id="textblock"><g><svg viewBox="0 0 42.44224627010622 59.00725799999999" height="59.00725799999999" width="42.44224627010622"><g transform="matrix(1,0,0,1,0,0)"><svg width="42.44224627010622" viewBox="2.9 -32.45 23.700000000000003 32.95" height="59.00725799999999" data-palette-color="#2277dd"><path d="M26.45-8.6L26.6-8.35Q25.75-4.3 25.25 0.05L25.25 0.05 25 0.35Q14.5 0 9.85 0L9.85 0Q6.15 0 2.9 0.5L2.9 0.5 3.2-1.8Q5.45-2.1 6.28-2.98 7.1-3.85 7.1-6L7.1-6 7.15-27Q7.15-28.6 6.78-29.15 6.4-29.7 5.3-29.7L5.3-29.7 3.6-29.6 3.5-29.8 3.85-32Q8.95-31.85 10.8-31.85L10.8-31.85Q16.75-31.85 20.05-31.98 23.35-32.1 25.8-32.45L25.8-32.45 25.95-32.15Q25.05-28.2 24.8-23.85L24.8-23.85 22.4-23.65 22.5-25.8Q22.5-27.55 22.05-28.23 21.6-28.9 20.1-29.13 18.6-29.35 14.85-29.35L14.85-29.35Q13.1-29.35 12.45-29.25 11.8-29.15 11.6-28.78 11.4-28.4 11.35-27.4L11.35-27.4 10.95-17.7 16.1-17.65Q18.05-17.65 22.2-18.2L22.2-18.2 22.4-17.95 21.7-15Q16.15-15.15 14.7-15.15L14.7-15.15Q13.05-15.15 10.85-14.8L10.85-14.8 10.65-5.25Q10.65-3.8 10.9-3.23 11.15-2.65 11.93-2.45 12.7-2.25 14.6-2.25L14.6-2.25Q18.8-2.25 20.58-2.65 22.35-3.05 23.1-4.25 23.85-5.45 24.25-8.35L24.25-8.35 26.45-8.6Z" opacity="1" transform="matrix(1,0,0,1,0,0)" fill="#2277dd" class="wordmark-text-0" data-fill-palette-color="primary" id="text-0"></path></svg></g></svg></g></svg></g></svg></g></svg></g></svg></g><g><path d="M49.848 33.816A21.221 21.221 0 0 1 104.652 33.816L99.331 33.816A15.9 15.9 0 0 0 55.169 33.816L49.848 33.816M49.848 120.684A21.221 21.221 0 0 0 104.652 120.684L99.331 120.684A15.9 15.9 0 0 1 55.169 120.684L49.848 120.684" fill="#2277dd" stroke="transparent" data-fill-palette-color="tertiary"></path></g></svg></g><defs></defs></svg><rect width="154.5" height="154.5" fill="none" stroke="none" visibility="hidden"></rect></g></svg></g></svg>